<mxfile host="app.diagrams.net" modified="2021-05-28T09:43:23.326Z" agent="5.0 (Windows NT 10.0; Win64; x64) AppleWebKit/537.36 (KHTML, like Gecko) Chrome/91.0.4472.77 Safari/537.36" etag="vDH2Rp6mcNCtrhm4YJbv" version="14.7.1" type="github">
  <diagram id="19SG4UyNRXgv8VcJVvP6" name="第 1 页">
    <mxGraphModel dx="920" dy="462" grid="1" gridSize="10" guides="1" tooltips="1" connect="1" arrows="1" fold="1" page="1" pageScale="1" pageWidth="850" pageHeight="1100" math="0" shadow="0">
      <root>
        <mxCell id="0" />
        <mxCell id="1" parent="0" />
        <mxCell id="VoZCC9V7OB7-NRBjLlrH-1" value="" style="shape=table;html=1;whiteSpace=wrap;startSize=0;container=1;collapsible=0;childLayout=tableLayout;" vertex="1" parent="1">
          <mxGeometry x="280" y="480" width="240" height="40" as="geometry" />
        </mxCell>
        <mxCell id="VoZCC9V7OB7-NRBjLlrH-2" value="" style="shape=partialRectangle;html=1;whiteSpace=wrap;collapsible=0;dropTarget=0;pointerEvents=0;fillColor=none;top=0;left=0;bottom=0;right=0;points=[[0,0.5],[1,0.5]];portConstraint=eastwest;" vertex="1" parent="VoZCC9V7OB7-NRBjLlrH-1">
          <mxGeometry width="240" height="40" as="geometry" />
        </mxCell>
        <mxCell id="VoZCC9V7OB7-NRBjLlrH-3" value="0" style="shape=partialRectangle;html=1;whiteSpace=wrap;connectable=0;overflow=hidden;fillColor=none;top=0;left=0;bottom=0;right=0;" vertex="1" parent="VoZCC9V7OB7-NRBjLlrH-2">
          <mxGeometry width="60" height="40" as="geometry" />
        </mxCell>
        <mxCell id="VoZCC9V7OB7-NRBjLlrH-4" value="1" style="shape=partialRectangle;html=1;whiteSpace=wrap;connectable=0;overflow=hidden;fillColor=none;top=0;left=0;bottom=0;right=0;" vertex="1" parent="VoZCC9V7OB7-NRBjLlrH-2">
          <mxGeometry x="60" width="60" height="40" as="geometry" />
        </mxCell>
        <mxCell id="VoZCC9V7OB7-NRBjLlrH-5" value="0" style="shape=partialRectangle;html=1;whiteSpace=wrap;connectable=0;overflow=hidden;fillColor=none;top=0;left=0;bottom=0;right=0;" vertex="1" parent="VoZCC9V7OB7-NRBjLlrH-2">
          <mxGeometry x="120" width="60" height="40" as="geometry" />
        </mxCell>
        <mxCell id="VoZCC9V7OB7-NRBjLlrH-6" value="0" style="shape=partialRectangle;html=1;whiteSpace=wrap;connectable=0;overflow=hidden;fillColor=none;top=0;left=0;bottom=0;right=0;" vertex="1" parent="VoZCC9V7OB7-NRBjLlrH-2">
          <mxGeometry x="180" width="60" height="40" as="geometry" />
        </mxCell>
        <mxCell id="VoZCC9V7OB7-NRBjLlrH-7" value="" style="shape=table;html=1;whiteSpace=wrap;startSize=0;container=1;collapsible=0;childLayout=tableLayout;" vertex="1" parent="1">
          <mxGeometry x="280" y="560" width="240" height="40" as="geometry" />
        </mxCell>
        <mxCell id="VoZCC9V7OB7-NRBjLlrH-8" value="" style="shape=partialRectangle;html=1;whiteSpace=wrap;collapsible=0;dropTarget=0;pointerEvents=0;fillColor=none;top=0;left=0;bottom=0;right=0;points=[[0,0.5],[1,0.5]];portConstraint=eastwest;" vertex="1" parent="VoZCC9V7OB7-NRBjLlrH-7">
          <mxGeometry width="240" height="40" as="geometry" />
        </mxCell>
        <mxCell id="VoZCC9V7OB7-NRBjLlrH-9" value="10&lt;sup&gt;-6&lt;/sup&gt;" style="shape=partialRectangle;html=1;whiteSpace=wrap;connectable=0;overflow=hidden;fillColor=none;top=0;left=0;bottom=0;right=0;" vertex="1" parent="VoZCC9V7OB7-NRBjLlrH-8">
          <mxGeometry width="60" height="40" as="geometry" />
        </mxCell>
        <mxCell id="VoZCC9V7OB7-NRBjLlrH-10" value="0.9" style="shape=partialRectangle;html=1;whiteSpace=wrap;connectable=0;overflow=hidden;fillColor=none;top=0;left=0;bottom=0;right=0;" vertex="1" parent="VoZCC9V7OB7-NRBjLlrH-8">
          <mxGeometry x="60" width="60" height="40" as="geometry" />
        </mxCell>
        <mxCell id="VoZCC9V7OB7-NRBjLlrH-11" value="0.1" style="shape=partialRectangle;html=1;whiteSpace=wrap;connectable=0;overflow=hidden;fillColor=none;top=0;left=0;bottom=0;right=0;" vertex="1" parent="VoZCC9V7OB7-NRBjLlrH-8">
          <mxGeometry x="120" width="60" height="40" as="geometry" />
        </mxCell>
        <mxCell id="VoZCC9V7OB7-NRBjLlrH-12" value="10&lt;sup&gt;-9&lt;/sup&gt;" style="shape=partialRectangle;html=1;whiteSpace=wrap;connectable=0;overflow=hidden;fillColor=none;top=0;left=0;bottom=0;right=0;" vertex="1" parent="VoZCC9V7OB7-NRBjLlrH-8">
          <mxGeometry x="180" width="60" height="40" as="geometry" />
        </mxCell>
        <mxCell id="VoZCC9V7OB7-NRBjLlrH-13" value="&lt;font face=&quot;Times New Roman&quot;&gt;cow&lt;/font&gt;" style="text;html=1;strokeColor=none;fillColor=none;align=center;verticalAlign=middle;whiteSpace=wrap;rounded=0;" vertex="1" parent="1">
          <mxGeometry x="290" y="530" width="40" height="20" as="geometry" />
        </mxCell>
        <mxCell id="VoZCC9V7OB7-NRBjLlrH-14" value="&lt;font face=&quot;Times New Roman&quot;&gt;dog&lt;/font&gt;" style="text;html=1;strokeColor=none;fillColor=none;align=center;verticalAlign=middle;whiteSpace=wrap;rounded=0;" vertex="1" parent="1">
          <mxGeometry x="350" y="530" width="40" height="20" as="geometry" />
        </mxCell>
        <mxCell id="VoZCC9V7OB7-NRBjLlrH-15" value="&lt;font face=&quot;Times New Roman&quot;&gt;cat&lt;/font&gt;" style="text;html=1;strokeColor=none;fillColor=none;align=center;verticalAlign=middle;whiteSpace=wrap;rounded=0;" vertex="1" parent="1">
          <mxGeometry x="405" y="530" width="40" height="20" as="geometry" />
        </mxCell>
        <mxCell id="VoZCC9V7OB7-NRBjLlrH-16" value="&lt;font face=&quot;Times New Roman&quot;&gt;car&lt;/font&gt;" style="text;html=1;strokeColor=none;fillColor=none;align=center;verticalAlign=middle;whiteSpace=wrap;rounded=0;" vertex="1" parent="1">
          <mxGeometry x="470" y="530" width="40" height="20" as="geometry" />
        </mxCell>
        <mxCell id="VoZCC9V7OB7-NRBjLlrH-17" value="硬标签" style="text;html=1;strokeColor=none;fillColor=none;align=center;verticalAlign=middle;whiteSpace=wrap;rounded=0;" vertex="1" parent="1">
          <mxGeometry x="220" y="490" width="40" height="20" as="geometry" />
        </mxCell>
        <mxCell id="VoZCC9V7OB7-NRBjLlrH-18" value="软标签" style="text;html=1;strokeColor=none;fillColor=none;align=center;verticalAlign=middle;whiteSpace=wrap;rounded=0;" vertex="1" parent="1">
          <mxGeometry x="220" y="570" width="40" height="20" as="geometry" />
        </mxCell>
      </root>
    </mxGraphModel>
  </diagram>
</mxfile>
